<svg width="588" height="450" viewBox="0 0 588 450" fill="none" xmlns="http://www.w3.org/2000/svg">
<path d="M50.9968 149C40.2372 128 -13.2349 19.3333 3.06757 0H588V450H75.4505C31.6295 406 28.0104 333 40.2372 301C52.4641 269 85.2626 215.878 50.9968 149Z" fill="white" fill-opacity="0.35"/>
<circle cx="148" cy="170" r="47" fill="#E84142"/>
<path d="M158.954 169.544C160.03 167.647 161.766 167.647 162.841 169.544L169.541 181.554C170.617 183.452 169.736 185 167.585 185H154.088C151.961 185 151.081 183.452 152.132 181.554L158.954 169.544ZM145.995 146.423C147.071 144.526 148.782 144.526 149.858 146.423L151.35 149.17L154.871 155.487C155.726 157.285 155.726 159.407 154.871 161.205L143.061 182.104C141.985 183.802 140.2 184.875 138.22 185H128.415C126.264 185 125.383 183.477 126.459 181.554L145.995 146.423Z" fill="white"/>
<circle cx="266" cy="170" r="47" fill="#627EEA"/>
<path d="M251 170.469L266.365 163.49V145L251 170.469Z" fill="white" fill-opacity="0.85"/>
<path d="M251 170.469L266.365 179.531V163.49L251 170.469Z" fill="white" fill-opacity="0.45"/>
<path d="M266.365 145V163.49L281.729 170.469L266.365 145Z" fill="white" fill-opacity="0.5"/>
<path d="M281.729 170.469L266.365 163.49V179.531L281.729 170.469Z" fill="white" fill-opacity="0.3"/>
<path d="M266.365 195V182.448L251 173.385L266.365 195Z" fill="white" fill-opacity="0.85"/>
<path d="M266.365 195L281.729 173.385L266.365 182.448V195Z" fill="white" fill-opacity="0.5"/>
<circle cx="203" cy="280" r="47" fill="black"/>
<path d="M202.639 268.517L210.554 276.432L215.132 271.855L202.639 259.314L190.145 271.807L194.771 276.432L202.639 268.517ZM186.903 275.097L191.48 279.675L186.903 284.253L182.325 279.675L186.903 275.097ZM202.639 290.833L210.554 282.918L215.18 287.495L202.639 300.036L190.145 287.543V287.495L194.771 282.918L202.639 290.833ZM218.375 275.097L223 279.675L218.375 284.253L213.797 279.675L218.375 275.097Z" fill="#F3BA2F"/>
<path d="M207.789 279.675L202.639 274.525L198.872 278.34L198.442 278.769L197.536 279.675L202.639 284.825L207.789 279.675Z" fill="#F3BA2F"/>
<circle cx="423" cy="280" r="47" fill="#13B5EC"/>
<path fill-rule="evenodd" clip-rule="evenodd" d="M425.657 272.606L434.657 267.356V277.856L425.657 272.606ZM434.657 295.106L422.657 302.106L410.657 295.106V282.856L422.657 289.856L434.657 282.856V295.106ZM410.657 267.356L419.657 272.606L410.657 277.856V267.356ZM424.157 275.106L433.157 280.356L424.157 285.606V275.106ZM421.157 285.606L412.157 280.356L421.157 275.106V285.606ZM433.157 264.856L422.657 270.856L412.157 264.856L422.657 258.606L433.157 264.856ZM407.657 263.856V296.606L422.657 305.106L437.657 296.606V263.856L422.657 255.356L407.657 263.856Z" fill="white"/>
<circle cx="390" cy="170" r="47" fill="#854CE6"/>
<path d="M399.831 186.749L400.086 186.645L404.361 184.16L408.77 181.601C409.006 181.472 409.218 181.308 409.4 181.113C409.722 180.773 409.932 180.345 410 179.885C410 179.677 410 169.53 410 169.308C409.918 168.798 409.683 168.324 409.325 167.947C408.989 167.634 408.611 167.37 408.2 167.163L400.176 162.533C399.839 162.382 399.474 162.304 399.104 162.304C398.734 162.304 398.368 162.382 398.031 162.533C397.896 162.533 396.982 163.109 394.957 164.278L390.038 167.133L385.178 169.944C383.678 170.861 382.283 171.63 382.178 171.66C381.839 171.83 381.464 171.916 381.084 171.911C380.707 171.912 380.334 171.837 379.989 171.69C379.824 171.69 375.339 169.042 375.099 168.864C374.865 168.688 374.657 168.479 374.484 168.243C374.292 167.954 374.155 167.633 374.079 167.296C374.026 166.31 374.026 165.323 374.079 164.337C373.959 163.189 373.994 162.03 374.184 160.891C374.283 160.612 374.419 160.349 374.589 160.107C374.76 159.877 374.967 159.677 375.204 159.515C375.384 159.396 379.704 156.867 379.839 156.763C380.187 156.605 380.565 156.524 380.949 156.524C381.332 156.524 381.71 156.605 382.058 156.763C382.208 156.837 386.558 159.367 386.888 159.559C387.206 159.772 387.468 160.056 387.653 160.388C387.773 160.591 387.864 160.81 387.923 161.038V161.26V163.109C387.923 164.13 387.923 164.973 387.923 164.973L389.917 163.834L391.882 162.695V160.846C391.882 158.79 391.882 158.864 391.747 158.45C391.565 157.952 391.242 157.516 390.817 157.192C390.667 157.089 382.508 152.355 382.118 152.148L381.804 152H381.669H380.169L379.944 152.089C379.779 152.163 378.624 152.814 375.444 154.648C373.09 156.009 371.11 157.163 371.035 157.222C370.764 157.408 370.533 157.645 370.356 157.919C370.178 158.193 370.057 158.499 370 158.82C370 159.027 370 159.189 370 164.249C370 169.308 370 169.485 370 169.677C370.058 170.006 370.185 170.318 370.375 170.595C370.57 170.871 370.808 171.116 371.08 171.319C371.275 171.438 379.599 176.275 379.809 176.379C380.168 176.545 380.56 176.631 380.956 176.631C381.353 176.631 381.744 176.545 382.104 176.379L385.103 174.618C387.548 173.139 388.312 172.74 389.948 171.837C391.582 170.935 392.032 170.684 394.807 169.012L397.806 167.192C398.435 166.908 399.153 166.881 399.801 167.119C399.906 167.145 400.007 167.184 400.101 167.237C400.281 167.325 404.796 170.047 404.931 170.195C405.443 170.596 405.785 171.171 405.89 171.808C405.89 172.074 405.89 177.592 405.89 177.858C405.784 178.513 405.424 179.102 404.886 179.5C404.736 179.604 400.386 182.177 400.041 182.325C399.699 182.476 399.329 182.554 398.954 182.554C398.579 182.554 398.208 182.476 397.866 182.325C397.747 182.325 396.877 181.764 395.392 180.846L392.977 179.367C392.546 179.043 392.223 178.6 392.047 178.095C391.927 177.725 391.927 177.829 391.912 175.757V173.864L389.948 175.003L387.983 176.142V178.05C387.983 180.121 387.983 180.106 388.088 180.461C388.173 180.721 388.3 180.966 388.463 181.187C388.632 181.412 388.834 181.612 389.062 181.778C389.198 181.882 397.492 186.734 397.687 186.837C397.882 186.941 397.986 187 398.812 187H399.546L399.831 186.749Z" fill="white"/>
<circle cx="313" cy="280" r="47" fill="#48A9A6"/>
<path fill-rule="evenodd" clip-rule="evenodd" d="M293 268.006H309.012V260H293V268.006Z" fill="white"/>
<path fill-rule="evenodd" clip-rule="evenodd" d="M316.988 268.006H333V260H316.988V268.006Z" fill="white"/>
<path fill-rule="evenodd" clip-rule="evenodd" d="M333 283.988H324.994V291.994H316.988V300H333V283.988Z" fill="white"/>
<path fill-rule="evenodd" clip-rule="evenodd" d="M309.012 300V291.994H301.006V283.988H293V300H309.012Z" fill="white"/>
</svg>
